<svg width="193" height="32" viewBox="0 0 193 32" xmlns="http://www.w3.org/2000/svg"><title>Logo</title><g transform="translate(-3 -4)" fill="none" fill-rule="evenodd"><rect fill="#0FA5A5" transform="rotate(45 31.669 19.703)" x="13.704" y="10.474" width="35.929" height="18.457" rx="9.228"/><rect fill="#FFC021" transform="scale(-1 1) rotate(45 0 -26.776)" x="1.287" y="10.474" width="35.929" height="18.457" rx="9.228"/><path d="M25.46 4.299a9.228 9.228 0 0 0-6.494 15.753l6.494 6.493 6.494-6.494A9.228 9.228 0 0 0 25.46 4.3z" fill="#3BC4A1"/><path d="M69.826 21.649v7.546h-3.91V10.2h5.879c4.707 0 7.247 2.079 7.247 5.98 0 2.99-1.57 4.984-4.508 5.724l5.25 7.29h-4.737l-5.221-7.546zm0-2.279h1.769c2.225 0 3.48-1.082 3.48-2.99 0-1.822-1.198-2.961-3.138-2.961h-2.111v5.951zm25.336 4.101H84.834c.314 1.823 1.655 2.962 3.452 2.962 1.341 0 2.482-.655 3.053-1.709l3.338.911c-1.312 2.563-3.623 4.016-6.42 4.016-4.194 0-7.19-2.962-7.19-7.063 0-4.129 2.882-7.033 6.962-7.033 4.223 0 7.162 2.961 7.162 7.204l-.029.712zm-10.328-2.079h6.62c-.315-1.737-1.57-2.79-3.368-2.79-1.74 0-2.91.996-3.252 2.79zm21.97 3.93c-.942.826-1.627 1.11-2.568 1.11-2.112 0-3.624-1.622-3.624-3.872 0-2.164 1.484-3.788 3.48-3.788 1.057 0 1.913.37 2.711 1.168l2.426-2.193c-1.684-1.509-3.31-2.192-5.279-2.192-4.108 0-7.019 2.961-7.019 7.119 0 4.015 2.968 6.977 6.99 6.977 1.998 0 3.567-.598 5.08-1.965l-2.198-2.364zm10.3-9.767c4.165 0 7.161 3.018 7.161 7.176 0 3.873-3.167 6.92-7.219 6.92-4.165 0-7.161-2.934-7.161-7.034 0-4.186 2.939-7.062 7.219-7.062zm0 3.246c-2.14 0-3.567 1.51-3.567 3.816 0 2.278 1.427 3.816 3.538 3.816 2.083 0 3.538-1.567 3.538-3.76 0-2.391-1.341-3.872-3.51-3.872zm9.843-2.79v13.184h3.624v-7.831c0-1.823.713-2.762 2.083-2.762 1.312 0 1.997.94 1.997 2.762v7.83h3.623V21.25c0-1.68.77-2.648 2.112-2.648 1.37 0 2.026.854 2.026 2.648v7.945h3.623v-8.628c0-1.994-.257-2.905-1.056-3.788-.741-.797-1.854-1.224-3.195-1.224-1.883 0-3.11.683-3.995 2.192-.627-1.423-1.883-2.192-3.595-2.192-1.683 0-2.796.655-3.623 2.107V16.01h-3.624zm26.221 11.475v1.709h-3.623V10.2h3.623v7.404c1.256-1.452 2.482-2.05 4.28-2.05 3.88 0 6.648 2.961 6.648 7.119 0 4.129-2.625 6.977-6.477 6.977-1.997 0-3.281-.627-4.45-2.165zm3.567-8.884c-2.026 0-3.624 1.822-3.624 4.1 0 2.364 1.455 4.015 3.538 4.015 2.111 0 3.595-1.651 3.595-4.015 0-2.335-1.512-4.1-3.51-4.1zm23.339 4.87h-10.329c.314 1.822 1.655 2.96 3.453 2.96 1.34 0 2.482-.654 3.053-1.708l3.338.911c-1.313 2.563-3.624 4.016-6.42 4.016-4.194 0-7.19-2.962-7.19-7.063 0-4.129 2.882-7.033 6.962-7.033 4.223 0 7.161 2.961 7.161 7.204l-.028.712zm-10.329-2.08h6.62c-.314-1.737-1.57-2.79-3.367-2.79-1.74 0-2.91.996-3.253 2.79zm26.193 2.08h-10.329c.314 1.822 1.655 2.96 3.453 2.96 1.34 0 2.482-.654 3.053-1.708l3.338.911c-1.313 2.563-3.624 4.016-6.42 4.016-4.194 0-7.19-2.962-7.19-7.063 0-4.129 2.882-7.033 6.962-7.033 4.223 0 7.161 2.961 7.161 7.204l-.028.712zm-10.329-2.08h6.62c-.314-1.737-1.57-2.79-3.367-2.79-1.74 0-2.91.996-3.253 2.79z" fill="#364040"/></g></svg>